<svg width="24" height="24" viewBox="0 0 24 24" fill="none" xmlns="http://www.w3.org/2000/svg">
<path d="M12 6.24C10.8608 6.24 9.74714 6.57782 8.79992 7.21074C7.85269 7.84365 7.11441 8.74324 6.67845 9.79574C6.24249 10.8482 6.12843 12.0064 6.35068 13.1237C6.57293 14.2411 7.12151 15.2674 7.92706 16.0729C8.73262 16.8785 9.75895 17.4271 10.8763 17.6493C11.9936 17.8716 13.1518 17.7575 14.2043 17.3215C15.2568 16.8856 16.1563 16.1473 16.7893 15.2001C17.4222 14.2529 17.76 13.1392 17.76 12C17.76 10.4724 17.1531 9.00727 16.0729 7.92706C14.9927 6.84686 13.5276 6.24 12 6.24ZM12 15.84C11.2405 15.84 10.4981 15.6148 9.86661 15.1928C9.23513 14.7709 8.74294 14.1712 8.4523 13.4695C8.16166 12.7678 8.08562 11.9957 8.23378 11.2509C8.38195 10.506 8.74768 9.82174 9.28471 9.28471C9.82174 8.74768 10.506 8.38195 11.2509 8.23378C11.9957 8.08562 12.7678 8.16166 13.4695 8.4523C14.1712 8.74294 14.7709 9.23513 15.1928 9.86661C15.6148 10.4981 15.84 11.2405 15.84 12C15.8368 13.0175 15.4312 13.9923 14.7118 14.7118C13.9923 15.4312 13.0175 15.8368 12 15.84ZM17.28 0H6.72C4.93775 0 3.22849 0.707998 1.96824 1.96824C0.707998 3.22849 0 4.93775 0 6.72V17.28C0 19.0623 0.707998 20.7715 1.96824 22.0318C3.22849 23.292 4.93775 24 6.72 24H17.28C19.0623 24 20.7715 23.292 22.0318 22.0318C23.292 20.7715 24 19.0623 24 17.28V6.72C24 4.93775 23.292 3.22849 22.0318 1.96824C20.7715 0.707998 19.0623 0 17.28 0ZM22.08 17.28C22.08 17.9103 21.9558 18.5345 21.7146 19.1169C21.4734 19.6992 21.1198 20.2284 20.6741 20.6741C20.2284 21.1198 19.6992 21.4734 19.1169 21.7146C18.5345 21.9558 17.9103 22.08 17.28 22.08H6.72C6.08965 22.08 5.46548 21.9558 4.88312 21.7146C4.30076 21.4734 3.77161 21.1198 3.32589 20.6741C2.88017 20.2284 2.5266 19.6992 2.28538 19.1169C2.04416 18.5345 1.92 17.9103 1.92 17.28V6.72C1.92 5.44696 2.42571 4.22606 3.32589 3.32589C4.22606 2.42571 5.44696 1.92 6.72 1.92H17.28C17.9103 1.92 18.5345 2.04416 19.1169 2.28538C19.6992 2.5266 20.2284 2.88017 20.6741 3.32589C21.1198 3.77161 21.4734 4.30076 21.7146 4.88312C21.9558 5.46548 22.08 6.08965 22.08 6.72V17.28ZM19.68 5.76C19.68 6.04481 19.5955 6.32321 19.4373 6.56002C19.2791 6.79683 19.0542 6.9814 18.7911 7.09039C18.5279 7.19938 18.2384 7.22789 17.9591 7.17233C17.6797 7.11677 17.4232 6.97962 17.2218 6.77823C17.0204 6.57685 16.8832 6.32026 16.8277 6.04093C16.7721 5.7616 16.8006 5.47206 16.9096 5.20894C17.0186 4.94581 17.2032 4.72091 17.44 4.56268C17.6768 4.40445 17.9552 4.32 18.24 4.32C18.6219 4.32 18.9882 4.47171 19.2582 4.74177C19.5283 5.01182 19.68 5.37809 19.68 5.76Z" fill="#707070"/>
</svg>
